<svg width="40" height="40" viewBox="0 0 40 40" fill="none" xmlns="http://www.w3.org/2000/svg">
<rect x="0.5" y="0.5" width="39" height="39" rx="7.5" stroke="#F1F1FA"/>
<path d="M29.19 16.46L17.19 28.46C16.9139 28.7302 16.5674 28.9173 16.19 29L12.65 29.71C12.3277 29.7737 11.9947 29.7571 11.6804 29.6616C11.3661 29.566 11.0801 29.3945 10.8478 29.1622C10.6155 28.9299 10.444 28.644 10.3485 28.3296C10.2529 28.0153 10.2363 27.6823 10.3 27.36L11 23.85C11.0827 23.4726 11.2698 23.1261 11.54 22.85L23.38 11C23.7666 10.6039 24.2285 10.2891 24.7386 10.0742C25.2486 9.85928 25.7965 9.74857 26.35 9.74857C26.9035 9.74857 27.4514 9.85928 27.9615 10.0742C28.4715 10.2891 28.9334 10.6039 29.32 11C30.009 11.76 30.3796 12.7555 30.3554 13.781C30.3313 14.8064 29.914 15.7834 29.19 16.51V16.46Z" stroke="#212325" stroke-width="2" stroke-linecap="round" stroke-linejoin="round"/>
</svg>
