<svg width="32" height="32" viewBox="0 0 32 32" fill="none" xmlns="http://www.w3.org/2000/svg">
<path d="M27.67 13.56L25.67 11.74L18 4.78001C17.45 4.28806 16.7379 4.01608 16 4.01608C15.2621 4.01608 14.55 4.28806 14 4.78001L6.34999 11.78L4.34999 13.6C4.21531 13.7367 4.12279 13.9092 4.08346 14.097C4.04413 14.2847 4.05965 14.4799 4.12817 14.6591C4.19669 14.8383 4.31532 14.994 4.4699 15.1077C4.62449 15.2213 4.8085 15.2881 4.99999 15.3C5.25328 15.2886 5.49276 15.1813 5.66999 15L5.99999 14.7V25C5.99999 25.7957 6.31606 26.5587 6.87867 27.1213C7.44128 27.6839 8.20434 28 8.99999 28H23C23.7956 28 24.5587 27.6839 25.1213 27.1213C25.6839 26.5587 26 25.7957 26 25V14.74L26.33 15.04C26.5134 15.2067 26.7522 15.2994 27 15.3C27.2016 15.2995 27.3984 15.238 27.5644 15.1237C27.7305 15.0094 27.8581 14.8475 27.9306 14.6594C28.003 14.4712 28.0169 14.2655 27.9704 14.0694C27.9239 13.8732 27.8192 13.6956 27.67 13.56Z" fill="#C6C6C6"/>
</svg>
